<?xml version="1.0" standalone="no"?><!DOCTYPE svg PUBLIC "-//W3C//DTD SVG 1.1//EN" "http://www.w3.org/Graphics/SVG/1.1/DTD/svg11.dtd"><svg t="1767592121701" class="icon" viewBox="0 0 1024 1024" version="1.1" xmlns="http://www.w3.org/2000/svg" p-id="17174" xmlns:xlink="http://www.w3.org/1999/xlink" width="200" height="200"><path d="M996.328 885.639H830.294v110.689c0 15.289-12.383 27.672-27.672 27.672H774.95c-15.29 0-27.673-12.383-27.673-27.672v-110.69H581.244c-15.29 0-27.672-12.382-27.672-27.672V664.261c0-15.29 12.383-27.673 27.672-27.673h166.033V525.9c0-15.289 12.383-27.672 27.673-27.672h27.672c15.29 0 27.672 12.383 27.672 27.672v110.69h166.034c15.289 0 27.672 12.382 27.672 27.672v193.705c0 15.29-12.383 27.673-27.672 27.673zM664.26 719.605c-15.29 0-27.673 12.383-27.673 27.672v27.673c0 15.289 12.383 27.672 27.673 27.672h83.016v-83.017h-83.016z m276.722 27.672c0-15.289-12.383-27.672-27.672-27.672h-83.017v83.017h83.017c15.29 0 27.672-12.383 27.672-27.672v-27.673zM403.08 308.691l105.508 217.208h-209.5L403.08 308.691z m288.853 272.553h-64.948l-186.25-383.116c0-0.126-0.253-0.252-0.253-0.379-0.38-1.01-1.264-1.769-1.77-2.653-4.674-8.972-12.003-15.921-21.1-19.46-0.254-0.126-0.38 0-0.633-0.126-4.801-1.769-9.856-2.78-15.163-2.653-1.137 0-2.274 0.505-3.538 0.632-3.79 0.379-7.455 0.505-11.12 2.021-0.504 0.127-0.757 0.632-1.263 0.759-0.252 0.126-0.379 0.379-0.631 0.379-10.109 4.548-17.438 12.509-21.228 22.112 0 0.126-0.253 0.253-0.253 0.38L152.26 641.39c-8.466 21.354 2.021 45.489 23.376 53.828 21.354 8.466 45.488-2.022 53.828-23.376l43.214-90.22h225.422V913.69H110.689C49.532 913.69 0 864.158 0 803.001V110.689C0 49.532 49.532 0 110.689 0h581.244c61.157 0 110.689 49.532 110.689 110.689v332.067h-110.69v138.488z" fill="#4E5EF2" p-id="17175"></path></svg>